<svg width="1512" height="796" viewBox="0 0 1512 796" fill="none" xmlns="http://www.w3.org/2000/svg">
<g opacity="0.6">
<mask id="mask0_2006_128" style="mask-type:alpha" maskUnits="userSpaceOnUse" x="-1" y="0" width="1513" height="796">
<rect x="-1" width="1513" height="796" fill="url(#paint0_radial_2006_128)"/>
</mask>
<g mask="url(#mask0_2006_128)">
<g style="mix-blend-mode:plus-lighter" opacity="0.08">
<mask id="mask1_2006_128" style="mask-type:luminance" maskUnits="userSpaceOnUse" x="-596" y="-1145" width="2850" height="2849">
<path d="M756.534 -1144.69L-595.389 334.493L901.994 1703.05L2253.92 223.868L756.534 -1144.69Z" fill="white"/>
</mask>
<g mask="url(#mask1_2006_128)">
<mask id="mask2_2006_128" style="mask-type:luminance" maskUnits="userSpaceOnUse" x="-596" y="-1145" width="2850" height="2849">
<path d="M756.534 -1144.69L-595.389 334.493L901.994 1703.05L2253.92 223.868L756.534 -1144.69Z" fill="white"/>
</mask>
<g mask="url(#mask2_2006_128)">
<mask id="mask3_2006_128" style="mask-type:luminance" maskUnits="userSpaceOnUse" x="-596" y="-1145" width="2850" height="2849">
<path d="M756.534 -1144.69L-595.389 334.493L901.994 1703.05L2253.92 223.868L756.534 -1144.69Z" fill="white"/>
</mask>
<g mask="url(#mask3_2006_128)">
<mask id="mask4_2006_128" style="mask-type:luminance" maskUnits="userSpaceOnUse" x="591" y="116" width="420" height="246">
<path d="M959.2 313.775C868.493 413.021 734.672 333.395 652.783 285.002C642.152 278.892 632.474 273.053 623.779 268.111C586.461 247.831 586.203 206.716 601.212 177.152C621.172 138.886 669.829 110.618 729.224 140.255C783.793 167.286 845.4 147.848 894.942 132.412C940.453 118.1 979.454 105.654 997.981 134.009C1035.72 191.943 977.864 288.754 975.226 292.955C969.921 300.731 964.887 307.552 959.2 313.775ZM618.36 160.362C612.971 166.258 608.536 172.424 605.083 179.488C590.617 207.144 591.063 245.424 625.818 264.565C634.187 269.208 644.192 275.346 654.823 281.456C740.583 332.185 884.053 417.023 972.009 291.217C973.45 288.327 1030.38 191.872 994.66 136.985C977.826 111.379 941.901 122.43 896.091 137.069C845.95 153.16 783.417 172.954 726.912 144.756C680.983 121.413 641.71 134.813 618.36 160.362Z" fill="white"/>
</mask>
<g mask="url(#mask4_2006_128)">
<path d="M1128.7 108.605L920.877 518.008L504.95 306.788L712.773 -102.616L1128.7 108.605Z" fill="#163A67"/>
</g>
</g>
<mask id="mask5_2006_128" style="mask-type:luminance" maskUnits="userSpaceOnUse" x="-596" y="-1145" width="2850" height="2849">
<path d="M756.534 -1144.69L-595.389 334.493L901.994 1703.05L2253.92 223.868L756.534 -1144.69Z" fill="white"/>
</mask>
<g mask="url(#mask5_2006_128)">
<g opacity="0.9524">
<mask id="mask6_2006_128" style="mask-type:luminance" maskUnits="userSpaceOnUse" x="507" y="-100" width="617" height="617">
<path d="M799.875 -99.3539L507.398 220.655L831.351 516.737L1123.83 196.728L799.875 -99.3539Z" fill="white"/>
</mask>
<g mask="url(#mask6_2006_128)">
<mask id="mask7_2006_128" style="mask-type:luminance" maskUnits="userSpaceOnUse" x="542" y="100" width="514" height="299">
<path d="M992.408 340.52C946.306 390.962 885.869 408.463 811.423 393.323C739.511 378.696 668.58 336.711 616.976 305.778C604.082 298.202 592.142 290.896 581.539 285.413C535.853 260.489 535.831 210.574 554.649 174.871C579.259 128.232 638.317 93.8404 710.55 129.801C777.331 163.184 853.183 139.331 914.163 119.922C969.887 102.321 1017.55 86.9695 1039.82 121.747C1085.66 192.498 1015.26 310.913 1012.03 315.769C1005.52 324.855 999.294 332.987 992.408 340.52ZM574.407 153.254C567.821 160.46 562.516 168.235 557.865 176.609C539.918 210.702 540.455 258.083 583.251 281.567C593.555 287.378 605.795 294.357 618.689 301.933C723.804 364.34 900.149 468.405 1007.53 313.462C1009.27 310.244 1079.33 191.53 1035.21 124.154C1014.64 92.1248 970.382 106.379 914.031 124.009C852.424 143.447 776.273 167.627 707.584 133.703C651.706 105.476 603.146 121.81 574.407 153.254Z" fill="white"/>
</mask>
<g mask="url(#mask7_2006_128)">
<path d="M1200.14 91.5442L945.795 591.279L436.728 332.804L690.778 -166.603L1200.14 91.5442Z" fill="#163A67"/>
</g>
</g>
</g>
</g>
<mask id="mask8_2006_128" style="mask-type:luminance" maskUnits="userSpaceOnUse" x="-596" y="-1145" width="2850" height="2849">
<path d="M756.534 -1144.69L-595.389 334.493L901.994 1703.05L2253.92 223.868L756.534 -1144.69Z" fill="white"/>
</mask>
<g mask="url(#mask8_2006_128)">
<g opacity="0.9048">
<mask id="mask9_2006_128" style="mask-type:luminance" maskUnits="userSpaceOnUse" x="452" y="-152" width="729" height="729">
<path d="M797.563 -151.363L452.098 226.621L834.625 576.237L1180.09 198.253L797.563 -151.363Z" fill="white"/>
</mask>
<g mask="url(#mask9_2006_128)">
<mask id="mask10_2006_128" style="mask-type:luminance" maskUnits="userSpaceOnUse" x="493" y="85" width="606" height="352">
<path d="M1025.02 367.921C970.834 427.206 899.257 448.353 811.513 430.678C726.603 413.188 642.778 363.627 581.198 327.182C566.041 318.139 551.539 309.693 539.299 302.715C485.871 273.121 485.16 214.76 507.459 172.621C536.392 117.308 606.179 77.0922 690.95 119.704C770.57 159.41 860.039 131.171 932.159 108.116C997.47 87.254 1054.12 69.297 1080.42 110.17C1134.67 193.411 1048.8 337.958 1047.6 339.268C1040.83 349.308 1033.1 359.077 1025.02 367.921ZM530.781 146.446C522.998 154.962 516.495 164.047 511.302 174.33C489.873 214.86 490.501 271.341 541.339 299.169C553.578 306.147 568.081 314.593 583.237 323.636C708.007 397.394 916.302 521.041 1044.36 336.904C1046.4 333.358 1129.3 192.713 1077.05 111.893C1052.44 73.7687 999.816 90.6008 933.252 111.52C860.506 134.603 770.111 163.198 689.21 122.922C622.429 89.5394 564.908 109.106 530.781 146.446Z" fill="white"/>
</mask>
<g mask="url(#mask10_2006_128)">
<path d="M1271.26 74.186L971.042 664.85L368.835 359.121L668.756 -231.216L1271.26 74.186Z" fill="#163A67"/>
</g>
</g>
</g>
</g>
<mask id="mask11_2006_128" style="mask-type:luminance" maskUnits="userSpaceOnUse" x="-596" y="-1145" width="2850" height="2849">
<path d="M756.534 -1144.69L-595.389 334.493L901.994 1703.05L2253.92 223.868L756.534 -1144.69Z" fill="white"/>
</mask>
<g mask="url(#mask11_2006_128)">
<g opacity="0.8571">
<mask id="mask12_2006_128" style="mask-type:luminance" maskUnits="userSpaceOnUse" x="396" y="-204" width="841" height="840">
<path d="M795.222 -203.997L396.77 231.963L838.197 635.412L1236.65 199.453L795.222 -203.997Z" fill="white"/>
</mask>
<g mask="url(#mask12_2006_128)">
<mask id="mask13_2006_128" style="mask-type:luminance" maskUnits="userSpaceOnUse" x="445" y="70" width="699" height="405">
<path d="M1057.93 394.995C995.363 463.451 912.619 487.617 811.877 467.079C713.969 446.726 617.25 389.588 546.319 347.604C528.9 337.093 512.135 327.181 497.988 319.662C436.519 285.723 435.717 218.263 461.197 170.014C494.481 106.655 574.67 60.3157 672.906 109.222C765.036 154.953 868.423 122 951.71 95.9263C1026.93 72.1022 1092.25 51.2401 1122.59 98.2084C1184.94 194.267 1085.6 360.774 1084.73 362.383C1075.84 374.089 1067.21 384.841 1057.93 394.995ZM486.831 139.339C477.85 149.165 470.178 160.188 464.086 171.452C439.476 218.092 440.195 283.673 499.401 316.144C513.876 323.963 530.313 333.576 547.733 344.086C691.857 429.522 932.7 572.096 1080.83 359.421C1083.17 355.547 1179.21 192.643 1118.56 99.3334C1089.91 55.1138 1028.93 74.5232 952.149 98.7318C868.263 125.461 763.923 158.143 670.511 111.842C592.827 73.304 526.347 96.1029 486.831 139.339Z" fill="white"/>
</mask>
<g mask="url(#mask13_2006_128)">
<path d="M1342.38 56.8268L996.287 738.42L300.94 385.437L646.732 -295.829L1342.38 56.8268Z" fill="#163A67"/>
</g>
</g>
</g>
</g>
<mask id="mask14_2006_128" style="mask-type:luminance" maskUnits="userSpaceOnUse" x="-596" y="-1145" width="2850" height="2849">
<path d="M756.534 -1144.69L-595.389 334.493L901.994 1703.05L2253.92 223.868L756.534 -1144.69Z" fill="white"/>
</mask>
<g mask="url(#mask14_2006_128)">
<g opacity="0.8095">
<mask id="mask15_2006_128" style="mask-type:luminance" maskUnits="userSpaceOnUse" x="341" y="-257" width="953" height="952">
<path d="M793.209 -256.334L341.77 237.601L841.77 694.584L1293.21 200.649L793.209 -256.334Z" fill="white"/>
</mask>
<g mask="url(#mask15_2006_128)">
<mask id="mask16_2006_128" style="mask-type:luminance" maskUnits="userSpaceOnUse" x="396" y="54" width="791" height="459">
<path d="M1090.54 422.395C1019.59 500.022 926.008 527.506 811.641 504.134C700.762 481.545 590.495 416.233 510.541 369.007C490.56 357.357 471.532 345.978 455.449 337.291C385.939 299.009 385.373 222.747 414.007 167.762C451.615 95.7306 542.532 43.5667 653.606 98.7965C757.948 150.879 875.579 113.512 970.005 83.7925C1055.44 56.6789 1129.12 33.2392 1163.17 86.0037C1233.92 194.552 1121.45 383.317 1120.28 385.254C1111.14 398.541 1101.02 410.931 1090.54 422.395ZM443.205 132.53C433.027 143.666 424.158 155.999 417.523 169.172C389.759 222.548 390.241 296.93 457.489 333.745C473.572 342.432 492.599 353.811 512.581 365.461C592.535 412.687 702.475 477.7 812.727 500.317C944.207 527.307 1043.88 488.559 1117.66 382.862C1120 378.988 1229.48 193.498 1160.42 87.6983C1127.73 37.3833 1058.69 59.043 971.398 86.8686C876.373 117.243 758.115 154.638 652.492 101.986C563.55 57.3668 488.11 83.3983 443.205 132.53Z" fill="white"/>
</mask>
<g mask="url(#mask16_2006_128)">
<path d="M1394.88 30.2677L1005.17 797.037L235.63 406.299L625.038 -360.143L1394.88 30.2677Z" fill="#163A67"/>
</g>
</g>
</g>
</g>
<mask id="mask17_2006_128" style="mask-type:luminance" maskUnits="userSpaceOnUse" x="-596" y="-1145" width="2850" height="2849">
<path d="M756.534 -1144.69L-595.389 334.493L901.994 1703.05L2253.92 223.868L756.534 -1144.69Z" fill="white"/>
</mask>
<g mask="url(#mask17_2006_128)">
<g opacity="0.7619">
<mask id="mask18_2006_128" style="mask-type:luminance" maskUnits="userSpaceOnUse" x="286" y="-309" width="1064" height="1064">
<path d="M790.897 -308.342L286.47 243.567L845.044 754.085L1349.47 202.175L790.897 -308.342Z" fill="white"/>
</mask>
<g mask="url(#mask18_2006_128)">
<mask id="mask19_2006_128" style="mask-type:luminance" maskUnits="userSpaceOnUse" x="347" y="37" width="884" height="513">
<path d="M1123.15 449.796C1043.82 536.595 939.071 567.098 811.706 540.863C687.829 515.411 564.668 442.522 475.036 389.457C452.792 376.34 431.829 363.793 413.811 353.938C336.259 311.313 335.603 225.95 367.418 164.856C409.377 84.7785 510.994 26.1635 634.907 87.7167C751.76 145.823 883.336 104.37 988.575 70.7055C1087.63 39.2058 1166.26 14.2852 1204.35 73.1451C1283.21 194.511 1157.6 405.535 1156.43 407.472C1146.45 422.994 1134.83 437.022 1123.15 449.796ZM399.255 125.423C387.879 137.869 378.14 151.811 370.635 166.594C339.39 226.406 340.262 309.561 415.551 350.72C433.569 360.575 454.533 373.122 476.777 386.238C566.408 439.303 688.915 511.594 812.165 537.074C959.477 567.112 1070.89 524.063 1153.51 405.407C1156.15 401.206 1278.76 193.457 1201.6 74.8397C1164.87 18.4294 1087.8 42.9654 989.668 74.1091C883.475 107.503 751.301 149.611 633.167 90.9351C533.977 41.7581 449.548 70.3955 399.255 125.423Z" fill="white"/>
</mask>
<g mask="url(#mask19_2006_128)">
<path d="M1463.76 12.0694L1028.46 868.814L167.709 431.989L603.016 -424.756L1463.76 12.0694Z" fill="#163A67"/>
</g>
</g>
</g>
</g>
<mask id="mask20_2006_128" style="mask-type:luminance" maskUnits="userSpaceOnUse" x="-596" y="-1145" width="2850" height="2849">
<path d="M756.534 -1144.69L-595.389 334.493L901.994 1703.05L2253.92 223.868L756.534 -1144.69Z" fill="white"/>
</mask>
<g mask="url(#mask20_2006_128)">
<g opacity="0.7143">
<mask id="mask21_2006_128" style="mask-type:luminance" maskUnits="userSpaceOnUse" x="231" y="-361" width="1176" height="1175">
<path d="M788.886 -360.681L231.472 249.204L848.619 813.255L1406.03 203.371L788.886 -360.681Z" fill="white"/>
</mask>
<g mask="url(#mask21_2006_128)">
<mask id="mask22_2006_128" style="mask-type:luminance" maskUnits="userSpaceOnUse" x="298" y="21" width="977" height="567">
<path d="M1155.76 477.195C1114.45 522.396 1067.19 553.74 1014.6 571.199C955.196 590.851 886.842 592.701 811.769 577.589C674.594 549.603 538.539 469.137 439.558 410.532C415.051 395.949 391.526 382.262 371.572 371.239C285.979 324.27 284.933 230.135 320.528 162.276C345.138 115.637 386.513 78.9093 435.018 61.3224C491.556 40.8588 553.951 46.1862 616.235 77.2619C745.599 141.393 890.792 95.5532 1007.5 58.5426C1117.39 23.725 1203.76 -3.74469 1245.89 61.2105C1333.15 195.066 1194.4 428.349 1192.93 430.613C1181.13 447.475 1168.64 463.111 1155.76 477.195ZM355.63 118.613C343.057 132.37 332.447 147.921 323.745 164.014C289.019 230.263 289.982 322.518 373.64 368.32C393.593 379.343 417.119 393.029 441.626 407.613C540.607 466.217 676.335 546.384 812.883 574.399C975.727 607.813 1099.18 560.135 1190.34 428.847C1192.98 424.646 1328.73 194.638 1243.14 62.9051C1202.37 0.39949 1116.93 27.5131 1008.59 61.9463C891.259 98.9854 745.139 145.181 614.494 80.4804C504.701 25.8202 411.312 57.6903 355.63 118.613Z" fill="white"/>
</mask>
<g mask="url(#mask22_2006_128)">
<path d="M1531.18 -3.86619L1051.41 940.29L110.691 462.834L590.157 -480.995L1531.18 -3.86619Z" fill="#163A67"/>
</g>
</g>
</g>
</g>
<mask id="mask23_2006_128" style="mask-type:luminance" maskUnits="userSpaceOnUse" x="-596" y="-1145" width="2850" height="2849">
<path d="M756.534 -1144.69L-595.389 334.493L901.994 1703.05L2253.92 223.868L756.534 -1144.69Z" fill="white"/>
</mask>
<g mask="url(#mask23_2006_128)">
<g opacity="0.6667">
<mask id="mask24_2006_128" style="mask-type:luminance" maskUnits="userSpaceOnUse" x="176" y="-414" width="1287" height="1287">
<path d="M786.87 -413.019L176.469 254.841L852.189 872.426L1462.59 204.567L786.87 -413.019Z" fill="white"/>
</mask>
<g mask="url(#mask24_2006_128)">
<mask id="mask25_2006_128" style="mask-type:luminance" maskUnits="userSpaceOnUse" x="250" y="5" width="1070" height="621">
<path d="M1188.7 504.897C1143.5 554.356 1091.66 588.733 1034.11 607.673C968.826 629.162 894.206 631.297 812.157 614.618C661.984 583.769 513.035 495.726 404.376 431.283C377.607 415.232 351.819 400.079 330.257 388.187C236.622 336.874 235.485 233.639 274.263 159.671C300.884 108.859 346.478 68.1723 399.313 49.1328C460.781 26.5617 529.797 32.5301 597.859 66.4826C739.762 137.264 898.873 86.7113 1026.72 46.0551C1146.83 7.94797 1241.55 -22.0992 1287.72 48.9513C1383.08 195.624 1231.2 451.166 1229.73 453.43C1216.43 471.929 1203.07 489.175 1188.7 504.897ZM311.676 111.508C297.905 126.575 286.098 143.436 276.852 161.437C238.646 234.123 239.999 335.151 331.399 385.624C353.288 397.815 378.748 412.669 405.845 429.018C514.177 493.163 663.126 581.205 812.673 612.083C991.349 648.545 1126.54 596.567 1226.54 452.319C1229.48 447.79 1378.37 195.524 1284.37 51.301C1239.57 -17.3 1145.77 12.3911 1027.21 50.1138C898.74 90.7984 738.704 141.708 595.52 70.3562C475.422 9.88545 372.746 44.689 311.676 111.508Z" fill="white"/>
</mask>
<g mask="url(#mask25_2006_128)">
<path d="M1599.76 -21.737L1074.69 1012.07L44.0466 489.094L569.112 -544.71L1599.76 -21.737Z" fill="#163A67"/>
</g>
</g>
</g>
</g>
<mask id="mask26_2006_128" style="mask-type:luminance" maskUnits="userSpaceOnUse" x="-596" y="-1145" width="2850" height="2849">
<path d="M756.534 -1144.69L-595.389 334.493L901.994 1703.05L2253.92 223.868L756.534 -1144.69Z" fill="white"/>
</mask>
<g mask="url(#mask26_2006_128)">
<g opacity="0.619">
<mask id="mask27_2006_128" style="mask-type:luminance" maskUnits="userSpaceOnUse" x="121" y="-466" width="1399" height="1398">
<path d="M784.859 -465.352L121.47 260.482L856.091 931.901L1519.48 206.066L784.859 -465.352Z" fill="white"/>
</mask>
<g mask="url(#mask27_2006_128)">
<mask id="mask28_2006_128" style="mask-type:luminance" maskUnits="userSpaceOnUse" x="200" y="-10" width="1163" height="674">
<path d="M1221.32 532.299C1172.22 586.016 1115.81 623.427 1053 644.175C982.463 667.473 900.951 669.921 811.627 652.003C648.156 618.618 486.613 522.672 368.603 452.688C339.272 435.498 311.221 418.878 287.724 405.818C186.048 350.162 185.147 238.126 226.779 157.749C255.712 102.437 305.254 58.7453 362.391 37.6267C429.415 12.9195 503.798 19.586 577.966 56.7144C732.38 133.521 905.735 78.5527 1044.72 34.251C1175.04 -7.1457 1278.13 -39.7703 1328.01 37.0764C1382.25 120.318 1362.26 235.5 1335.78 317.7C1307.07 406.28 1265.29 476.304 1265.02 477.258C1251.44 496.711 1236.88 515.267 1221.32 532.299ZM268.056 104.701C253.088 121.078 240.41 139.549 229.968 158.86C188.58 237.656 189.397 347.812 289.464 402.6C312.962 415.66 341.012 432.28 370.344 449.47C488.353 519.453 649.869 614.773 812.713 648.187C1006.92 688.023 1154.45 631.09 1263.32 474.509C1265.93 469.682 1428.58 195.128 1326.48 38.0875C1277.94 -36.9364 1175.78 -4.66767 1046.38 36.373C906.772 80.7032 732.791 135.699 577.423 58.6226C446.151 -6.04951 334.515 31.9866 268.056 104.701Z" fill="white"/>
</mask>
<g mask="url(#mask28_2006_128)">
<path d="M1668.97 -39.6344L1097.98 1083.85L-22.9165 515.057L548.076 -608.424L1668.97 -39.6344Z" fill="#163A67"/>
</g>
</g>
</g>
</g>
<mask id="mask29_2006_128" style="mask-type:luminance" maskUnits="userSpaceOnUse" x="-596" y="-1145" width="2850" height="2849">
<path d="M756.534 -1144.69L-595.389 334.493L901.994 1703.05L2253.92 223.868L756.534 -1144.69Z" fill="white"/>
</mask>
<g mask="url(#mask29_2006_128)">
<g opacity="0.5714">
<mask id="mask30_2006_128" style="mask-type:luminance" maskUnits="userSpaceOnUse" x="66" y="-518" width="1510" height="1510">
<path d="M782.546 -517.361L66.1706 266.448L859.365 991.401L1575.74 207.591L782.546 -517.361Z" fill="white"/>
</mask>
<g mask="url(#mask30_2006_128)">
<mask id="mask31_2006_128" style="mask-type:luminance" maskUnits="userSpaceOnUse" x="152" y="-26" width="1255" height="728">
<path d="M1254.22 559.37C1201.24 617.345 1140.25 657.789 1072.49 680.019C996.067 705.153 908.289 707.885 811.988 688.402C635.519 652.154 460.782 548.958 333.096 473.135C301.501 454.479 271.515 436.691 245.783 422.791C136.066 362.79 135.075 241.654 180.514 155.139C211.759 95.3268 265.22 48.0043 327.015 25.7322C399.295 -0.783541 479.672 6.55228 559.591 45.9309C726.217 129.089 913.489 69.4076 1063.94 21.7594C1204.8 -22.6277 1315.92 -58.1289 1369.84 24.8132C1428.45 114.449 1406.67 238.817 1378.58 327.369C1347.67 422.955 1302.69 498.462 1302.09 499.117C1286.74 521.162 1270.69 541.356 1254.22 559.37ZM224.103 97.5914C207.638 115.606 193.763 135.387 183.076 156.279C138.535 241.811 139.115 360.768 247.224 419.9C272.956 433.8 302.942 451.588 334.864 470.543C462.223 546.067 636.96 649.263 812.803 685.539C1022.84 728.424 1182.11 667.189 1299.53 497.977C1302.44 492.822 1478.22 196.009 1367.72 26.4794C1315.14 -54.6398 1204.94 -19.4947 1065 24.5364C913.928 72.2131 726.029 131.923 558.449 48.4943C416.874 -21.9885 295.95 18.9811 224.103 97.5914Z" fill="white"/>
</mask>
<g mask="url(#mask31_2006_128)">
<path d="M1737.85 -57.8367L1121.26 1155.62L-89.5584 541.313L527.034 -672.143L1737.85 -57.8367Z" fill="#163A67"/>
</g>
</g>
</g>
</g>
<mask id="mask32_2006_128" style="mask-type:luminance" maskUnits="userSpaceOnUse" x="-596" y="-1145" width="2850" height="2849">
<path d="M756.534 -1144.69L-595.389 334.493L901.994 1703.05L2253.92 223.868L756.534 -1144.69Z" fill="white"/>
</mask>
<g mask="url(#mask32_2006_128)">
<g opacity="0.5238">
<mask id="mask33_2006_128" style="mask-type:luminance" maskUnits="userSpaceOnUse" x="11" y="-570" width="1622" height="1621">
<path d="M780.53 -569.7L11.1667 272.085L862.934 1050.57L1632.3 208.787L780.53 -569.7Z" fill="white"/>
</mask>
<g mask="url(#mask33_2006_128)">
<mask id="mask34_2006_128" style="mask-type:luminance" maskUnits="userSpaceOnUse" x="103" y="-42" width="1348" height="782">
<path d="M1286.83 586.771C1229.95 649.005 1164.69 692.154 1092 716.491C1009.7 743.462 915.652 746.48 812.049 725.13C622.581 686.02 434.95 575.247 297.914 493.884C263.729 473.462 231.508 454.834 204.14 439.438C86.0543 374.795 85.0001 245.185 133.921 152.234C167.477 87.9208 224.885 37.5933 291.282 12.9146C368.818 -15.4097 455.49 -7.73188 540.888 34.8512C720.024 124.033 921.241 60.2651 1082.83 8.9714C1234.21 -39.0328 1353.39 -76.7839 1411.34 12.2535C1474.02 108.611 1450.78 242.464 1420.46 337.396C1387.36 439.989 1338.86 521.305 1338.26 521.961C1322.05 545.615 1304.79 567.119 1286.83 586.771ZM180.148 90.4844C162.485 109.809 147.74 131.199 135.856 153.401C87.8337 245.37 88.8043 373.1 204.982 437.202C232.65 452.27 264.899 471.525 298.756 491.649C435.465 572.712 623.424 683.784 812.237 722.296C1037.81 768.556 1208.78 702.395 1335.37 520.522C1336.84 518.258 1384.44 437.924 1417.28 336.285C1447.61 241.98 1470.91 109.38 1408.89 13.6206C1352.28 -73.5939 1233.72 -35.8713 1083.57 11.4493C921.353 62.7715 719.837 126.867 539.419 37.1154C387.267 -38.2238 257.383 5.97837 180.148 90.4844Z" fill="white"/>
</mask>
<g mask="url(#mask34_2006_128)">
<path d="M1806.73 -76.0338L1144.21 1227.1L-155.903 567.247L505.989 -735.857L1806.73 -76.0338Z" fill="#163A67"/>
</g>
</g>
</g>
</g>
<mask id="mask35_2006_128" style="mask-type:luminance" maskUnits="userSpaceOnUse" x="-596" y="-1145" width="2850" height="2849">
<path d="M756.534 -1144.69L-595.389 334.493L901.994 1703.05L2253.92 223.868L756.534 -1144.69Z" fill="white"/>
</mask>
<g mask="url(#mask35_2006_128)">
<g opacity="0.4762">
<mask id="mask36_2006_128" style="mask-type:luminance" maskUnits="userSpaceOnUse" x="-44" y="-623" width="1734" height="1734">
<path d="M778.516 -622.035L-43.8341 277.725L866.834 1110.04L1689.18 210.284L778.516 -622.035Z" fill="white"/>
</mask>
<g mask="url(#mask36_2006_128)">
<mask id="mask37_2006_128" style="mask-type:luminance" maskUnits="userSpaceOnUse" x="53" y="-58" width="1442" height="836">
<path d="M1319.44 614.172C1258.67 680.663 1188.84 726.846 1111.19 752.664C1023.33 781.771 922.692 784.774 812.112 761.858C609.674 720.512 408.794 601.237 262.108 514.662C225.361 493.1 191.177 472.677 161.574 456.441C105.584 425.708 69.8743 378.041 57.8285 318.94C47.2867 265.421 57.4709 204.996 86.4042 149.683C122.271 80.8703 183.599 26.9115 254.654 1.0793C337.746 -29.3811 429.785 -21.0055 521.588 24.426C713.236 119.633 928.398 51.7775 1101.13 -3.16182C1262.72 -54.4556 1390.56 -95.1118 1452.25 0.348555C1519.32 103.727 1494.26 246.139 1461.75 348.077C1426.14 458.005 1374.44 544.804 1373.84 545.459C1357.05 570.395 1338.6 593.209 1319.44 614.172ZM136.523 83.6761C117.663 104.311 101.72 127.012 89.2935 151.122C37.79 249.528 38.8514 386.358 163.37 454.476C192.973 470.712 227.158 491.134 263.904 512.696C410.291 599.599 610.816 717.948 812.954 759.622C1054.36 808.93 1237.07 738.468 1372.5 543.636C1373.97 541.372 1425.08 455.228 1460.11 346.582C1492.35 245.598 1517.44 103.812 1450.73 1.35961C1390.07 -91.9503 1263.15 -51.6501 1102.49 -0.71234C929.136 54.2554 713.675 122.438 520.746 26.6619C357.991 -54.1605 219.147 -6.7257 136.523 83.6761Z" fill="white"/>
</mask>
<g mask="url(#mask37_2006_128)">
<path d="M1875.32 -93.9061L1168.64 1296.31L-220.775 590.913L485.903 -799.303L1875.32 -93.9061Z" fill="#163A67"/>
</g>
</g>
</g>
</g>
<mask id="mask38_2006_128" style="mask-type:luminance" maskUnits="userSpaceOnUse" x="-596" y="-1145" width="2850" height="2849">
<path d="M756.534 -1144.69L-595.389 334.493L901.994 1703.05L2253.92 223.868L756.534 -1144.69Z" fill="white"/>
</mask>
<g mask="url(#mask38_2006_128)">
<g opacity="0.4286">
<mask id="mask39_2006_128" style="mask-type:luminance" maskUnits="userSpaceOnUse" x="-100" y="-675" width="1846" height="1844">
<path d="M775.878 -674.344L-99.1594 283.063L870.082 1168.92L1745.12 211.51L775.878 -674.344Z" fill="white"/>
</mask>
<g mask="url(#mask39_2006_128)">
<mask id="mask40_2006_128" style="mask-type:luminance" maskUnits="userSpaceOnUse" x="5" y="-73" width="1534" height="889">
<path d="M1352.06 641.573C1287.39 712.323 1213.31 761.838 1130.08 789.165C1036.63 819.782 929.432 823.397 811.577 799.242C596.141 755.032 382.068 628.509 226.331 536.066C187.322 513.037 150.874 491.147 119.663 474.043C60.1293 441.273 21.774 390.587 9.5611 327.726C-1.77447 270.476 9.19637 206.562 39.8422 147.404C78.0486 74.7175 143.268 16.5006 218.653 -10.7841C307.002 -43.053 405.334 -34.3353 502.617 14.3005C706.476 115.859 935.556 43.2901 1119.75 -14.9956C1202.71 -41.3688 1281.04 -65.9619 1345.17 -71.0732C1416.49 -76.8252 1463.48 -57.926 1493.49 -11.2568C1564.92 98.5162 1538.4 250.413 1503.66 358.731C1465.85 475.665 1410.94 567.947 1410.04 568.93C1392.36 594.849 1372.71 618.973 1352.06 641.573ZM92.5716 76.5691C72.5143 98.5145 55.7014 122.824 42.0771 148.244C-12.9072 253.087 -11.4558 398.69 120.805 471.48C152.016 488.584 189.09 510.445 227.472 533.502C383.21 625.945 596.956 752.17 812.065 796.08C1069 848.764 1263.75 773.673 1408.05 566.509C1409.52 564.245 1463.84 472.618 1501.37 356.638C1536.14 248.946 1562.39 98.0033 1491.61 -11.1715C1426.92 -110.577 1291.64 -67.699 1120.76 -13.4718C936.266 45.1415 706.56 117.739 501.747 15.9098C328.716 -70.0966 180.584 -19.7284 92.5716 76.5691Z" fill="white"/>
</mask>
<g mask="url(#mask40_2006_128)">
<path d="M1942.4 -110.138L1190.97 1367.82L-287.715 617.502L463.393 -860.753L1942.4 -110.138Z" fill="#163A67"/>
</g>
</g>
</g>
</g>
<mask id="mask41_2006_128" style="mask-type:luminance" maskUnits="userSpaceOnUse" x="-596" y="-1145" width="2850" height="2849">
<path d="M756.534 -1144.69L-595.389 334.493L901.994 1703.05L2253.92 223.868L756.534 -1144.69Z" fill="white"/>
</mask>
<g mask="url(#mask41_2006_128)">
<g opacity="0.381">
<mask id="mask42_2006_128" style="mask-type:luminance" maskUnits="userSpaceOnUse" x="-155" y="-727" width="1957" height="1956">
<path d="M773.564 -726.35L-154.461 289.032L873.353 1228.42L1801.38 213.038L773.564 -726.35Z" fill="white"/>
</mask>
<g mask="url(#mask42_2006_128)">
<mask id="mask43_2006_128" style="mask-type:luminance" maskUnits="userSpaceOnUse" x="-44" y="-89" width="1627" height="942">
<path d="M1385.29 668.948C1316.74 743.955 1238.08 796.503 1149.89 825.312C1050.89 858.065 937.096 861.665 812.265 835.943C583.532 789.199 356.864 654.771 191.15 556.816C149.878 532.321 111.196 509.591 77.7216 491.02C14.6442 456.213 -26.0295 402.807 -39.3634 335.916C-51.1655 275.234 -39.7353 207.531 -7.04961 144.828C33.4681 67.6408 102.635 6.419 182.949 -22.9733C276.554 -57.0507 380.554 -47.9627 484.242 3.52149C700.939 111.403 943.936 34.1209 1138.97 -27.4828C1226.89 -55.3369 1309.85 -81.7101 1377.73 -86.9922C1453.11 -93.2426 1502.99 -72.9051 1535 -23.8149C1610.5 92.68 1582.48 253.435 1545.84 368.432C1505.84 492.373 1447.41 590.465 1446.51 591.448C1427.33 619.004 1406.85 645.365 1385.29 668.948ZM48.9449 69.763C27.6901 93.0185 9.67968 118.638 -4.48758 145.967C-62.9528 257.247 -61.4107 411.949 79.2184 489.382C112.365 507.654 151.374 530.683 192.646 555.179C358.033 652.834 584.701 787.262 812.808 834.035C1085.28 890.094 1292.36 810.048 1445.21 590.252C1446.67 587.987 1504.5 490.55 1543.94 367.891C1580.6 253.52 1608.64 93.3921 1533.5 -22.1772C1464.77 -127.678 1321.75 -82.251 1140.04 -24.7057C1041.91 6.43791 930.457 41.64 818.66 54.8821C690.001 70.1461 580.354 54.0941 483.726 6.05647C299.438 -86.0311 142.346 -32.4304 48.9449 69.763Z" fill="white"/>
</mask>
<g mask="url(#mask43_2006_128)">
<path d="M2011.28 -128.336L1214.25 1439.59L-354.356 643.762L442.351 -924.468L2011.28 -128.336Z" fill="#163A67"/>
</g>
</g>
</g>
</g>
<mask id="mask44_2006_128" style="mask-type:luminance" maskUnits="userSpaceOnUse" x="-596" y="-1145" width="2850" height="2849">
<path d="M756.534 -1144.69L-595.389 334.493L901.994 1703.05L2253.92 223.868L756.534 -1144.69Z" fill="white"/>
</mask>
<g mask="url(#mask44_2006_128)">
<g opacity="0.3333">
<mask id="mask45_2006_128" style="mask-type:luminance" maskUnits="userSpaceOnUse" x="-210" y="-779" width="2069" height="2067">
<path d="M771.553 -778.69L-209.459 294.668L877.256 1287.89L1858.27 214.531L771.553 -778.69Z" fill="white"/>
</mask>
<g mask="url(#mask45_2006_128)">
<mask id="mask46_2006_128" style="mask-type:luminance" maskUnits="userSpaceOnUse" x="-93" y="-104" width="1722" height="995">
<path d="M1417.9 696.345C1345.46 775.611 1262.23 831.193 1169.41 861.781C1064.53 896.371 944.465 900.256 812.657 872.967C570.925 823.36 331.363 681.356 156.299 577.861C112.765 551.899 71.82 527.702 36.4382 508.589C-30.4823 472.074 -73.2031 414.994 -87.0035 344.67C-99.8987 280.584 -87.7096 208.766 -52.9842 142.516C-10.1552 60.8294 62.9315 -4.02383 147.576 -34.8687C246.736 -71.0822 356.731 -61.3247 466.197 -6.96364C695.406 106.942 952.347 25.5732 1158.52 -39.6761C1251.39 -69.0112 1339.31 -96.8653 1411.26 -102.646C1491.02 -109.095 1543.76 -87.9462 1577.46 -36.1074C1612.85 18.48 1629.67 86.1549 1628.2 165.963C1626.95 229.749 1613.48 300.998 1588.66 378.1C1546.45 509.047 1484.52 612.95 1483.92 613.605C1462.34 643.782 1440.66 671.452 1417.9 696.345ZM4.99442 62.6525C-17.4578 87.2182 -36.3385 114.447 -51.376 143.385C-113.023 260.774 -111.689 424.905 37.2805 506.354C72.363 525.794 113.635 550.289 157.142 575.625C332.206 679.12 571.441 820.825 813.173 870.432C1101.47 929.539 1320.3 845.193 1481.98 612.437C1483.45 610.173 1544.48 507.253 1586.42 377.259C1625.32 256.509 1654.82 86.8959 1575.61 -35.3953C1502.84 -146.991 1351.46 -98.987 1159.53 -38.1523C1055.82 -5.49916 938.186 31.8675 819.525 46.0494C683.374 62.2817 567.733 45.5601 465.327 -5.35445C270.163 -101.971 103.784 -45.4366 4.99442 62.6525Z" fill="white"/>
</mask>
<g mask="url(#mask46_2006_128)">
<path d="M2080.17 -146.538L1237.53 1511.37L-420.996 670.019L421.311 -988.186L2080.17 -146.538Z" fill="#163A67"/>
</g>
</g>
</g>
</g>
<mask id="mask47_2006_128" style="mask-type:luminance" maskUnits="userSpaceOnUse" x="-596" y="-1145" width="2850" height="2849">
<path d="M756.534 -1144.69L-595.389 334.493L901.994 1703.05L2253.92 223.868L756.534 -1144.69Z" fill="white"/>
</mask>
<g mask="url(#mask47_2006_128)">
<g opacity="0.2857">
<mask id="mask48_2006_128" style="mask-type:luminance" maskUnits="userSpaceOnUse" x="-265" y="-832" width="2180" height="2180">
<path d="M769.539 -831.025L-264.46 300.308L880.828 1347.06L1914.83 215.73L769.539 -831.025Z" fill="white"/>
</mask>
<g mask="url(#mask48_2006_128)">
<mask id="mask49_2006_128" style="mask-type:luminance" maskUnits="userSpaceOnUse" x="-142" y="-120" width="1813" height="1049">
<path d="M1450.52 723.748C1374.18 807.272 1286.37 865.887 1188.6 897.956C1078.46 934.354 951.805 938.226 812.424 910.025C557.394 857.883 304.938 708.302 120.196 598.968C74.0995 571.866 30.8922 546.203 -6.12575 525.595C-76.59 487.042 -121.629 427.242 -136.551 352.888C-149.912 285.37 -137.264 209.764 -100.499 139.968C-55.3583 53.7811 21.6758 -14.0769 110.95 -46.7018C215.367 -84.7239 331.028 -74.596 446.273 -17.3581C687.694 102.9 958.552 16.817 1176.49 -52.1063C1274.62 -83.2499 1367.2 -112.258 1442.58 -118.508C1526.4 -125.456 1582.03 -102.868 1617.42 -48.2808C1654.5 9.05525 1672.44 80.7602 1670.83 164.655C1669.43 231.903 1655.5 306.939 1629.29 388.185C1584.58 526.467 1519.74 635.525 1518.84 636.508C1497.65 668.237 1474.77 697.217 1450.52 723.748ZM-38.6283 55.8463C-62.278 81.7222 -82.3561 110.261 -98.2638 140.808C-163.064 264.934 -161.668 437.538 -4.95618 523.658C32.3611 543.938 75.5684 569.602 121.366 597.031C305.78 706.066 558.236 855.647 812.639 907.818C1116.47 970.3 1347.33 881.326 1517.56 635.938C1519.03 633.674 1583.57 524.943 1627.71 387.943C1668.5 260.513 1699.79 81.7149 1616.22 -46.9707C1580.86 -100.932 1525.88 -122.921 1442.99 -116.329C1367.61 -110.079 1275.03 -81.071 1176.9 -49.9274C1067.63 -15.1382 943.493 24.0939 818.893 38.8596C675.551 55.7326 553.289 38.37 445.73 -15.4498C240.889 -117.905 65.55 -58.1385 -38.6283 55.8463Z" fill="white"/>
</mask>
<g mask="url(#mask49_2006_128)">
<path d="M2137.68 -152.288L1256.35 1581.47L-487.961 695.982L393.068 -1037.45L2137.68 -152.288Z" fill="#163A67"/>
</g>
</g>
</g>
</g>
<mask id="mask50_2006_128" style="mask-type:luminance" maskUnits="userSpaceOnUse" x="-596" y="-1145" width="2850" height="2849">
<path d="M756.534 -1144.69L-595.389 334.493L901.994 1703.05L2253.92 223.868L756.534 -1144.69Z" fill="white"/>
</mask>
<g mask="url(#mask50_2006_128)">
<g opacity="0.2381">
<mask id="mask51_2006_128" style="mask-type:luminance" maskUnits="userSpaceOnUse" x="-320" y="-884" width="2292" height="2291">
<path d="M767.523 -883.363L-319.464 305.945L884.397 1406.23L1971.38 216.926L767.523 -883.363Z" fill="white"/>
</mask>
<g mask="url(#mask51_2006_128)">
<mask id="mask52_2006_128" style="mask-type:luminance" maskUnits="userSpaceOnUse" x="-191" y="-137" width="1907" height="1104">
<path d="M1483.12 751.149C1402.89 838.93 1310.52 900.579 1207.78 934.129C1091.76 972.364 958.841 976.52 812.156 946.454C544.128 891.449 278.778 734.291 84.686 619.418C36.3267 590.849 -9.14341 563.718 -48.069 542.569C-122.077 501.98 -169.135 439.133 -184.85 361.047C-198.679 290.097 -185.571 210.703 -147.093 137.062C-99.6413 46.3746 -18.6876 -25.1149 74.917 -59.1923C184.59 -99.0229 306.545 -88.5531 427.569 -28.4384C681.5 97.8439 966.304 7.67408 1195.38 -64.8947C1298.47 -97.5194 1395.67 -128.307 1475.44 -134.757C1563.65 -141.904 1622.14 -118.504 1659.55 -60.8694C1698.65 -0.485679 1717.68 74.6231 1715.64 162.933C1714.08 233.641 1699.39 312.793 1671.8 398.183C1624.89 543.472 1556.54 658.34 1555.64 659.323C1532.65 693.017 1508.57 723.308 1483.12 751.149ZM-82.5841 48.7389C-107.431 75.9249 -128.679 106.401 -145.157 138.23C-213.439 268.792 -211.952 450.496 -46.8715 541.259C-7.94598 562.408 37.5241 589.539 85.8835 618.107C279.648 732.682 545.325 890.139 813.026 944.845C1132.69 1010.38 1374.96 916.801 1554.36 658.753C1555.83 656.489 1623.58 542.275 1670.22 397.941C1713.24 264.131 1746.32 76.1474 1658.02 -59.8583C1620.97 -116.568 1563.11 -139.996 1475.85 -132.578C1396.71 -126.157 1299.51 -95.369 1196.42 -62.7443C1081.57 -26.4457 951.245 14.951 819.78 30.6565C668.946 48.4977 540.663 29.839 427.353 -26.231C210.983 -133.814 26.9827 -71.1417 -82.5841 48.7389Z" fill="white"/>
</mask>
<g mask="url(#mask52_2006_128)">
<path d="M2205.66 -169.504L1279.63 1653.24L-554.607 722.241L371.423 -1100.51L2205.66 -169.504Z" fill="#163A67"/>
</g>
</g>
</g>
</g>
<mask id="mask53_2006_128" style="mask-type:luminance" maskUnits="userSpaceOnUse" x="-596" y="-1145" width="2850" height="2849">
<path d="M756.534 -1144.69L-595.389 334.493L901.994 1703.05L2253.92 223.868L756.534 -1144.69Z" fill="white"/>
</mask>
<g mask="url(#mask53_2006_128)">
<g opacity="0.1905">
<mask id="mask54_2006_128" style="mask-type:luminance" maskUnits="userSpaceOnUse" x="-375" y="-936" width="2403" height="2403">
<path d="M765.21 -935.372L-374.764 311.91L887.998 1466.03L2027.97 218.749L765.21 -935.372Z" fill="white"/>
</mask>
<g mask="url(#mask54_2006_128)">
<mask id="mask55_2006_128" style="mask-type:luminance" maskUnits="userSpaceOnUse" x="-239" y="-152" width="2000" height="1157">
<path d="M1516.03 778.221C1431.91 870.26 1334.96 934.942 1226.97 970.301C1105.07 1010.37 965.88 1014.81 812.218 983.181C531.192 925.313 252.649 760.907 49.506 640.165C-1.11605 610.129 -49.1481 581.859 -90.0092 559.543C-167.561 516.917 -217.265 451.05 -233.147 369.206C-248.069 294.852 -233.875 211.64 -193.357 134.454C-143.594 39.266 -58.7208 -35.8548 39.8408 -71.4132C155.07 -113.38 282.72 -101.913 409.522 -38.9216C675.665 93.7125 974.713 -0.871893 1214.93 -77.0862C1322.98 -111.192 1425.14 -143.461 1508.33 -150.38C1600.93 -157.727 1661.98 -133.188 1701.08 -72.804C1741.87 -9.67178 1762.03 69.4672 1759.86 161.864C1758.14 236.033 1742.99 318.973 1714.01 408.508C1664.9 560.803 1593.04 681.482 1592.14 682.464C1567.96 717.469 1542.68 749.069 1516.03 778.221ZM-126.21 41.9295C-152.254 70.4258 -174.699 102.212 -192.048 135.65C-263.81 272.649 -261.933 463.126 -88.8118 558.232C-47.9507 580.549 -0.21793 609.147 50.7035 638.855C254.146 759.269 532.39 924.003 813.089 981.572C1148.29 1050.48 1402.9 951.948 1591.16 681.567C1592.63 679.303 1663.89 559.279 1712.73 407.938C1757.98 267.748 1792.52 70.2795 1699.86 -72.1205C1661.11 -131.579 1600.06 -156.117 1508.72 -148.828C1425.82 -142.236 1323.66 -109.967 1215.31 -75.5339C1094.58 -37.3983 958.074 6.16309 820.043 22.4808C662.046 41.5894 527.44 21.9621 408.325 -37.6114C181.706 -149.752 -11.2543 -83.8469 -126.21 41.9295Z" fill="white"/>
</mask>
<g mask="url(#mask55_2006_128)">
<path d="M2273.94 -187.05L1302.28 1725.05L-621.248 748.499L350.11 -1163.27L2273.94 -187.05Z" fill="#163A67"/>
</g>
</g>
</g>
</g>
<mask id="mask56_2006_128" style="mask-type:luminance" maskUnits="userSpaceOnUse" x="-596" y="-1145" width="2850" height="2849">
<path d="M756.534 -1144.69L-595.389 334.493L901.994 1703.05L2253.92 223.868L756.534 -1144.69Z" fill="white"/>
</mask>
<g mask="url(#mask56_2006_128)">
<g opacity="0.1429">
<mask id="mask57_2006_128" style="mask-type:luminance" maskUnits="userSpaceOnUse" x="-430" y="-988" width="2515" height="2514">
<path d="M763.202 -987.708L-429.759 317.55L891.577 1525.21L2084.54 219.948L763.202 -987.708Z" fill="white"/>
</mask>
<g mask="url(#mask57_2006_128)">
<mask id="mask58_2006_128" style="mask-type:luminance" maskUnits="userSpaceOnUse" x="-289" y="-168" width="2093" height="1210">
<path d="M1548.05 806.279C1516.02 841.326 1482.24 872.371 1447.34 899.386C1385.73 947.079 1318.26 982.795 1246.16 1006.48C1119 1048.36 972.924 1053.11 811.988 1020.24C517.991 960.135 226.199 787.226 13.4062 661.272C-39.4786 629.769 -89.4462 600.332 -132.243 576.847C-213.338 532.185 -265.361 463.598 -282.364 377.723C-297.752 299.937 -283.099 212.937 -240.84 132.532C-189.066 33.172 -99.9454 -45.2813 2.91874 -82.9189C123.077 -126.993 257.021 -115.184 389.929 -49.0169C668.91 89.9406 981.575 -9.02979 1232.93 -88.8897C1346.23 -124.804 1452.73 -158.525 1540.31 -165.644C1636.96 -173.489 1700.9 -147.511 1741.99 -84.7067C1784.81 -18.5268 1805.43 64.0444 1803.45 160.828C1801.57 238.457 1785.66 325.513 1755.6 418.864C1704.29 578.166 1629.22 704.327 1628.02 705.638C1602.97 742.251 1576.19 775.49 1548.05 806.279ZM-170.156 34.8243C-197.399 64.6307 -220.714 98.026 -238.933 133.073C-314.176 276.51 -312.208 476.087 -131.045 575.537C-88.2488 599.022 -38.2811 628.459 14.6037 659.962C227.396 785.916 518.861 958.526 812.559 1018.96C1163.59 1090.91 1429.94 988.08 1626.74 705.068C1628.21 702.804 1703.01 577.596 1754.02 418.622C1801.17 271.753 1837.5 65.0988 1740.47 -83.6957C1699.71 -146.201 1636.42 -171.58 1540.39 -163.764C1453.44 -156.674 1346.32 -122.924 1233.64 -87.0383C1107.35 -46.7666 964.01 -1.63893 820.369 15.5616C655.179 35.3109 514.252 14.7152 389.386 -47.1086C152.435 -165.686 -49.8126 -96.8478 -170.156 34.8243Z" fill="white"/>
</mask>
<g mask="url(#mask58_2006_128)">
<path d="M2341.93 -204.265L1325.25 1796.52L-688.509 774.789L328.477 -1226.33L2341.93 -204.265Z" fill="#163A67"/>
</g>
</g>
</g>
</g>
<mask id="mask59_2006_128" style="mask-type:luminance" maskUnits="userSpaceOnUse" x="-596" y="-1145" width="2850" height="2849">
<path d="M756.534 -1144.69L-595.389 334.493L901.994 1703.05L2253.92 223.868L756.534 -1144.69Z" fill="white"/>
</mask>
<g mask="url(#mask59_2006_128)">
<g opacity="0.0952454">
<mask id="mask60_2006_128" style="mask-type:luminance" maskUnits="userSpaceOnUse" x="-486" y="-1041" width="2627" height="2626">
<path d="M760.859 -1040.34L-485.089 322.888L894.82 1584.08L2140.77 220.845L760.859 -1040.34Z" fill="white"/>
</mask>
<g mask="url(#mask60_2006_128)">
<mask id="mask61_2006_128" style="mask-type:luminance" maskUnits="userSpaceOnUse" x="-337" y="-183" width="2185" height="1248">
<path d="M1580.99 833.979C1547.46 870.664 1512.48 903.019 1475.76 931.373C1411.4 980.76 1340.88 1018.5 1266.01 1043.25C1240.32 1051.64 1213.96 1058.8 1186.88 1064.11C1361.07 1027.94 1525.18 927.244 1663.54 727.883C1665.01 725.619 1743.32 594.601 1796.53 428.62C1846.2 275.044 1883.7 59.2326 1782.6 -96.2838C1740.15 -161.538 1673.67 -188.028 1573.26 -180.012C1482.54 -172.751 1370.8 -137.221 1252.54 -99.8261C1120.66 -58.045 971.139 -10.7528 820.633 7.38753C647.952 28.1051 500.704 6.54086 370.685 -58.1882C66.3544 -209.493 -182.816 -66.3169 -286.122 130.823C-364.547 280.368 -362.788 489.373 -173.583 593.167C-128.851 617.82 -76.6211 648.724 -21.1742 681.366C211.927 819.269 525.636 1005 839.301 1062.64C830.445 1061.15 821.262 1059.37 812.378 1057.27C505.383 994.3 201.024 814.113 -21.4457 682.32C-76.8926 649.678 -129.123 618.774 -173.855 594.121C-258.494 547.422 -312.863 475.489 -330.333 386.182C-346.187 304.963 -330.775 213.848 -287.104 129.925C-232.69 26.3641 -139.978 -56.0196 -32.7833 -95.1097C92.6309 -140.993 232.569 -128.514 371.256 -59.47C662.748 85.5118 989.331 -18.1722 1251.86 -101.051C1370.11 -138.446 1481.86 -173.976 1572.58 -181.237C1673.62 -189.281 1740.42 -162.492 1783.2 -96.9388C1828.03 -27.7111 1849.75 58.2636 1847.67 159.761C1845.93 240.523 1828.93 331.396 1797.51 429.518C1743.7 596.154 1665.1 727.499 1664.52 728.781C1638.27 766.704 1610.33 801.88 1580.99 833.979Z" fill="white"/>
</mask>
<g mask="url(#mask61_2006_128)">
<path d="M2399.9 -234.838L1336.45 1857.86L-775.271 786.267L288.184 -1306.43L2399.9 -234.838Z" fill="#163A67"/>
</g>
</g>
</g>
</g>
<mask id="mask62_2006_128" style="mask-type:luminance" maskUnits="userSpaceOnUse" x="-596" y="-1145" width="2850" height="2849">
<path d="M756.534 -1144.69L-595.389 334.493L901.994 1703.05L2253.92 223.868L756.534 -1144.69Z" fill="white"/>
</mask>
<g mask="url(#mask62_2006_128)">
<g opacity="0.0476227">
<mask id="mask63_2006_128" style="mask-type:luminance" maskUnits="userSpaceOnUse" x="-541" y="-1093" width="2739" height="2737">
<path d="M758.548 -1092.35L-540.388 328.854L898.422 1643.88L2197.36 222.669L758.548 -1092.35Z" fill="white"/>
</mask>
<g mask="url(#mask63_2006_128)">
<mask id="mask64_2006_128" style="mask-type:luminance" maskUnits="userSpaceOnUse" x="-386" y="-199" width="2279" height="1317">
<path d="M1613.6 861.378C1578.87 899.373 1542.4 933.366 1504.15 962.731C1437.07 1014.44 1363.47 1053.57 1285.2 1079.42C1212.8 1103.43 1134.27 1116.42 1052.08 1117.64C976.804 1119.17 896.398 1111.21 812.442 1093.99C492.149 1028.49 174.569 840.429 -57.2511 703.096C-114.961 668.987 -169.454 636.615 -215.794 611.094C-304.277 562.686 -360.664 487.705 -379.255 394.368C-396.203 309.746 -379.705 214.814 -333.994 127.345C-306.501 74.9235 -269.986 27.743 -225.618 -12.2598C-178.826 -54.2563 -126.249 -86.1556 -68.4852 -107.303C62.4847 -155.322 208.09 -142.473 352.883 -70.2528C656.587 81.0808 997.414 -27.0175 1271.08 -113.542C1394.29 -152.418 1510.67 -189.728 1605.77 -197.188C1710.87 -205.731 1780.56 -177.503 1825.04 -109.201C1871.56 -37.2251 1894.4 52.7801 1892.19 158.365C1890.61 242.886 1872.83 337.249 1840.02 439.514C1784.01 613.157 1701.9 750.313 1701.33 751.594C1673.58 791.156 1644.14 827.969 1613.6 861.378ZM-257.733 20.9074C-287.669 53.6617 -312.753 89.6488 -332.712 127.915C-414.291 284.197 -412.469 501.675 -214.896 610.112C-168.556 635.633 -114.063 668.004 -56.353 702.113C175.467 839.446 492.72 1027.21 812.714 1093.04C1195.11 1171.42 1485.53 1059.33 1699.72 750.726C1701.19 748.461 1782.7 611.96 1838.41 438.646C1889.99 278.39 1929.27 53.393 1823.49 -108.817C1779.34 -176.82 1709.97 -204.748 1605.17 -196.533C1510.4 -188.773 1393.99 -152.09 1271.11 -112.915C1133.65 -69.6245 977.642 -19.8403 820.87 -1.41526C640.698 20.2705 487.127 -2.26236 351.957 -69.8968C93.8829 -197.561 -126.612 -122.556 -257.733 20.9074Z" fill="white"/>
</mask>
<g mask="url(#mask64_2006_128)">
<path d="M2477.06 -236.462L1371.18 1940.11L-812.469 832.22L293.704 -1344.67L2477.06 -236.462Z" fill="#163A67"/>
</g>
</g>
</g>
</g>
</g>
</g>
<mask id="mask65_2006_128" style="mask-type:luminance" maskUnits="userSpaceOnUse" x="-596" y="-1145" width="2850" height="2849">
<path d="M756.534 -1144.69L-595.389 334.493L901.994 1703.05L2253.92 223.868L756.534 -1144.69Z" fill="white"/>
</mask>
<g mask="url(#mask65_2006_128)">
<mask id="mask66_2006_128" style="mask-type:luminance" maskUnits="userSpaceOnUse" x="444" y="68" width="699" height="408">
<path d="M550.481 342.392C533.062 331.881 516.624 322.268 502.149 314.449C444.551 282.847 444.244 219.445 468.283 174.087C474.374 162.822 481.747 152.127 490.428 142.628C529.046 100.375 594.301 78.2601 670.377 115.93C764.116 162.529 868.129 129.548 952.015 102.819C1027.54 78.6675 1087.29 59.9415 1114.61 102.338C1173.9 193.199 1079.93 353.183 1077.02 358.338C1068.45 370.343 1059.82 381.095 1050.84 390.922C903.854 551.745 684.601 421.69 550.481 342.392ZM460.241 169.743C434.49 218.946 435.348 287.66 497.77 321.869C511.918 329.389 528.056 339.329 545.775 349.512C616.378 391.198 712.798 448.663 810.678 468.389C911.747 489.226 994.791 464.733 1057.66 395.949C1066.94 385.795 1075.86 374.716 1083.81 362.739L1084.11 362.411C1088.18 355.319 1184.28 193.669 1121.6 97.3111C1090.28 49.4457 1024.97 70.3079 949.118 94.1605C867.084 120.178 764.624 152.774 673.774 107.613C596.09 69.0745 525.168 90.8195 482.958 137.003C474.304 147.128 466.632 158.151 460.241 169.743Z" fill="white"/>
</mask>
<g mask="url(#mask66_2006_128)">
<path d="M1318.15 48.5111L975.784 722.087L314.154 386.094L655.895 -287.453L1318.15 48.5111Z" fill="#163A67"/>
</g>
</g>
</g>
</g>
</g>
<defs>
<radialGradient id="paint0_radial_2006_128" cx="0" cy="0" r="1" gradientUnits="userSpaceOnUse" gradientTransform="translate(755 -85.731) rotate(90) scale(726.376 1380.66)">
<stop stop-color="#1256AC"/>
<stop offset="1" stop-color="#163A67"/>
</radialGradient>
</defs>
</svg>
